<svg xmlns="http://www.w3.org/2000/svg" xmlns:xlink="http://www.w3.org/1999/xlink" width="500" zoomAndPan="magnify" viewBox="0 0 375 279.749983" height="373" preserveAspectRatio="xMidYMid meet" version="1.0"><defs><clipPath id="3c41a6966d"><path d="M 119.449219 71.328125 L 255.828125 71.328125 L 255.828125 208.453125 L 119.449219 208.453125 Z M 119.449219 71.328125 " clip-rule="nonzero"/></clipPath></defs><g clip-path="url(#3c41a6966d)"><path fill="#000000" d="M 235.945312 91.304688 C 223.125 78.472656 206.082031 71.390625 187.917969 71.390625 C 150.492188 71.390625 120.03125 101.847656 120.019531 139.289062 C 120.019531 151.253906 123.140625 162.941406 129.082031 173.230469 L 119.449219 208.417969 L 155.445312 198.972656 C 165.363281 204.386719 176.527344 207.230469 187.890625 207.238281 L 187.917969 207.238281 C 225.335938 207.238281 255.800781 176.777344 255.808594 139.34375 C 255.808594 121.199219 248.761719 104.144531 235.9375 91.304688 Z M 187.917969 195.773438 L 187.898438 195.773438 C 177.773438 195.773438 167.835938 193.050781 159.171875 187.90625 L 157.113281 186.679688 L 135.75 192.285156 L 141.449219 171.457031 L 140.105469 169.324219 C 134.457031 160.339844 131.476562 149.953125 131.480469 139.289062 C 131.496094 108.175781 156.8125 82.855469 187.9375 82.855469 C 203.011719 82.855469 217.175781 88.738281 227.835938 99.40625 C 238.492188 110.070312 244.351562 124.253906 244.34375 139.335938 C 244.332031 170.453125 219.011719 195.773438 187.910156 195.773438 Z M 218.871094 153.507812 C 217.175781 152.664062 208.835938 148.554688 207.28125 147.992188 C 205.722656 147.425781 204.597656 147.148438 203.464844 148.839844 C 202.332031 150.542969 199.082031 154.363281 198.09375 155.496094 C 197.105469 156.625 196.113281 156.769531 194.414062 155.914062 C 192.71875 155.066406 187.253906 153.273438 180.769531 147.492188 C 175.730469 142.992188 172.320312 137.4375 171.332031 135.738281 C 170.34375 134.035156 171.230469 133.121094 172.078125 132.273438 C 172.835938 131.515625 173.769531 130.289062 174.625 129.300781 C 175.472656 128.3125 175.757812 127.601562 176.316406 126.46875 C 176.886719 125.335938 176.601562 124.347656 176.175781 123.496094 C 175.75 122.648438 172.363281 114.292969 170.945312 110.898438 C 169.570312 107.59375 168.167969 108.039062 167.132812 107.984375 C 166.140625 107.9375 165.011719 107.925781 163.878906 107.925781 C 162.75 107.925781 160.914062 108.34375 159.355469 110.046875 C 157.796875 111.746094 153.417969 115.851562 153.417969 124.199219 C 153.417969 132.546875 159.496094 140.617188 160.351562 141.753906 C 161.195312 142.886719 172.3125 160.019531 189.332031 167.371094 C 193.378906 169.121094 196.542969 170.164062 199.007812 170.949219 C 203.070312 172.242188 206.769531 172.058594 209.691406 171.621094 C 212.949219 171.132812 219.726562 167.515625 221.140625 163.550781 C 222.558594 159.585938 222.558594 156.191406 222.128906 155.480469 C 221.703125 154.769531 220.570312 154.347656 218.878906 153.496094 Z M 218.871094 153.507812 " fill-opacity="1" fill-rule="evenodd"/></g></svg>