<svg xmlns="http://www.w3.org/2000/svg" xmlns:xlink="http://www.w3.org/1999/xlink" width="500" zoomAndPan="magnify" viewBox="0 0 375 279.749983" height="373" preserveAspectRatio="xMidYMid meet" version="1.0"><defs><clipPath id="2357982bbf"><path d="M 128.386719 80.636719 L 246.78125 80.636719 L 246.78125 199 L 128.386719 199 Z M 128.386719 80.636719 " clip-rule="nonzero"/></clipPath></defs><g clip-path="url(#2357982bbf)"><path fill="#000000" d="M 163.054688 81.046875 C 156.757812 81.339844 152.457031 82.351562 148.699219 83.824219 C 144.804688 85.339844 141.511719 87.371094 138.230469 90.664062 C 134.945312 93.960938 132.929688 97.261719 131.429688 101.160156 C 129.972656 104.929688 128.984375 109.230469 128.707031 115.53125 C 128.425781 121.839844 128.367188 123.851562 128.394531 139.925781 C 128.421875 155.992188 128.496094 158.011719 128.796875 164.324219 C 129.097656 170.621094 130.101562 174.914062 131.574219 178.675781 C 133.089844 182.570312 135.121094 185.859375 138.414062 189.144531 C 141.710938 192.429688 145.011719 194.441406 148.910156 195.949219 C 152.675781 197.40625 156.980469 198.398438 163.277344 198.671875 C 169.589844 198.949219 171.601562 199.011719 187.667969 198.976562 C 203.742188 198.949219 205.753906 198.875 212.066406 198.574219 C 218.363281 198.273438 222.65625 197.265625 226.421875 195.796875 C 230.316406 194.277344 233.609375 192.25 236.890625 188.957031 C 240.167969 185.660156 242.1875 182.359375 243.691406 178.460938 C 245.148438 174.695312 246.140625 170.390625 246.414062 164.101562 C 246.6875 157.789062 246.753906 155.769531 246.726562 139.703125 C 246.699219 123.636719 246.621094 121.621094 246.324219 115.308594 C 246.023438 109.007812 245.019531 104.714844 243.546875 100.949219 C 242.027344 97.054688 240 93.765625 236.707031 90.480469 C 233.410156 87.203125 230.109375 85.179688 226.210938 83.679688 C 222.445312 82.222656 218.140625 81.230469 211.84375 80.957031 C 205.53125 80.675781 203.511719 80.617188 187.445312 80.644531 C 171.378906 80.671875 169.367188 80.746094 163.054688 81.046875 M 163.746094 188.011719 C 157.980469 187.761719 154.84375 186.804688 152.753906 186 C 149.988281 184.929688 148.019531 183.648438 145.9375 181.589844 C 143.863281 179.519531 142.582031 177.550781 141.5 174.796875 C 140.691406 172.710938 139.714844 169.582031 139.441406 163.808594 C 139.144531 157.574219 139.078125 155.703125 139.050781 139.902344 C 139.023438 124.109375 139.078125 122.234375 139.351562 115.996094 C 139.597656 110.230469 140.5625 107.09375 141.367188 105.007812 C 142.4375 102.242188 143.714844 100.273438 145.777344 98.195312 C 147.847656 96.121094 149.8125 94.835938 152.574219 93.753906 C 154.660156 92.941406 157.789062 91.96875 163.554688 91.699219 C 169.796875 91.402344 171.664062 91.339844 187.464844 91.308594 C 203.261719 91.273438 205.136719 91.328125 211.375 91.609375 C 217.140625 91.859375 220.277344 92.8125 222.363281 93.621094 C 225.128906 94.691406 227.101562 95.964844 229.175781 98.03125 C 231.25 100.101562 232.539062 102.066406 233.617188 104.832031 C 234.429688 106.910156 235.402344 110.042969 235.675781 115.804688 C 235.96875 122.046875 236.035156 123.917969 236.0625 139.714844 C 236.09375 155.511719 236.035156 157.386719 235.761719 163.621094 C 235.511719 169.386719 234.554688 172.527344 233.75 174.613281 C 232.679688 177.371094 231.402344 179.347656 229.332031 181.421875 C 227.265625 183.492188 225.300781 184.777344 222.535156 185.859375 C 220.453125 186.675781 217.320312 187.644531 211.558594 187.917969 C 205.320312 188.214844 203.453125 188.28125 187.648438 188.308594 C 171.855469 188.335938 169.980469 188.28125 163.738281 188.007812 M 211.984375 108.183594 C 211.988281 112.101562 215.179688 115.277344 219.09375 115.265625 C 223.015625 115.257812 226.1875 112.074219 226.183594 108.152344 C 226.175781 104.234375 222.988281 101.0625 219.066406 101.066406 C 215.144531 101.070312 211.972656 104.261719 211.976562 108.175781 M 157.175781 139.871094 C 157.210938 156.648438 170.839844 170.222656 187.613281 170.191406 C 204.394531 170.15625 217.972656 156.53125 217.941406 139.753906 C 217.90625 122.976562 204.277344 109.398438 187.496094 109.425781 C 170.722656 109.460938 157.140625 123.089844 157.175781 139.871094 M 167.832031 139.847656 C 167.816406 128.957031 176.628906 120.105469 187.519531 120.089844 C 198.410156 120.066406 207.261719 128.878906 207.28125 139.773438 C 207.304688 150.664062 198.488281 159.515625 187.597656 159.53125 C 176.707031 159.554688 167.855469 150.738281 167.839844 139.847656 " fill-opacity="1" fill-rule="nonzero"/></g></svg>