<svg xmlns="http://www.w3.org/2000/svg" xmlns:xlink="http://www.w3.org/1999/xlink" width="40" zoomAndPan="magnify" viewBox="0 0 30 30.000001" height="40" preserveAspectRatio="xMidYMid meet" version="1.0"><defs><g/><clipPath id="d25e1a7f26"><path d="M 0.96875 0.484375 L 29.03125 0.484375 L 29.03125 28.546875 L 0.96875 28.546875 Z M 0.96875 0.484375 " clip-rule="nonzero"/></clipPath><clipPath id="5497bbd213"><path d="M 15 0.484375 C 7.25 0.484375 0.96875 6.765625 0.96875 14.515625 C 0.96875 22.265625 7.25 28.546875 15 28.546875 C 22.75 28.546875 29.03125 22.265625 29.03125 14.515625 C 29.03125 6.765625 22.75 0.484375 15 0.484375 Z M 15 0.484375 " clip-rule="nonzero"/></clipPath><clipPath id="4959624ae3"><path d="M 0.96875 0.484375 L 29.03125 0.484375 L 29.03125 28.546875 L 0.96875 28.546875 Z M 0.96875 0.484375 " clip-rule="nonzero"/></clipPath><clipPath id="e243b09b63"><path d="M 15 0.484375 C 7.25 0.484375 0.96875 6.765625 0.96875 14.515625 C 0.96875 22.265625 7.25 28.546875 15 28.546875 C 22.75 28.546875 29.03125 22.265625 29.03125 14.515625 C 29.03125 6.765625 22.75 0.484375 15 0.484375 Z M 15 0.484375 " clip-rule="nonzero"/></clipPath><clipPath id="50f145a710"><rect x="0" width="30" y="0" height="29"/></clipPath><clipPath id="5ae371e708"><rect x="0" width="23" y="0" height="29"/></clipPath></defs><g clip-path="url(#d25e1a7f26)"><g clip-path="url(#5497bbd213)"><g transform="matrix(1, 0, 0, 1, 0.000000000000000111, 0.000000000000005718)"><g clip-path="url(#50f145a710)"><g clip-path="url(#4959624ae3)"><g clip-path="url(#e243b09b63)"><path fill="#000000" d="M 0.96875 0.484375 L 29.03125 0.484375 L 29.03125 28.546875 L 0.96875 28.546875 Z M 0.96875 0.484375 " fill-opacity="1" fill-rule="nonzero"/></g></g></g></g></g></g><g transform="matrix(1, 0, 0, 1, 5, 0.000000000000005692)"><g clip-path="url(#5ae371e708)"><g fill="#f2f2f2" fill-opacity="1"><g transform="translate(0.93067, 20.601277)"><g><path d="M 1.4375 -12.921875 L 6.03125 -12.921875 L 8.171875 -5.640625 L 8.28125 -5.640625 L 10.515625 -12.921875 L 15 -12.921875 L 15 0 L 12.203125 0 L 12.203125 -10.171875 L 12.09375 -10.171875 L 9.59375 -2.4375 L 6.765625 -2.4375 L 4.296875 -10.171875 L 4.1875 -10.171875 L 4.1875 0 L 1.4375 0 Z M 1.4375 -12.921875 "/></g></g></g><g fill="#f2f2f2" fill-opacity="1"><g transform="translate(16.047614, 20.601277)"><g><path d="M 3.078125 0.109375 C 2.578125 0.109375 2.210938 0.0703125 1.984375 0 C 1.765625 -0.0820312 1.617188 -0.234375 1.546875 -0.453125 C 1.472656 -0.679688 1.4375 -1.046875 1.4375 -1.546875 C 1.4375 -2.054688 1.472656 -2.421875 1.546875 -2.640625 C 1.617188 -2.859375 1.765625 -3.003906 1.984375 -3.078125 C 2.210938 -3.160156 2.578125 -3.203125 3.078125 -3.203125 C 3.554688 -3.203125 3.90625 -3.160156 4.125 -3.078125 C 4.351562 -3.003906 4.507812 -2.851562 4.59375 -2.625 C 4.675781 -2.40625 4.71875 -2.046875 4.71875 -1.546875 C 4.71875 -1.046875 4.675781 -0.679688 4.59375 -0.453125 C 4.507812 -0.234375 4.351562 -0.0820312 4.125 0 C 3.90625 0.0703125 3.554688 0.109375 3.078125 0.109375 Z M 3.078125 0.109375 "/></g></g></g></g></g></svg>