<svg xmlns="http://www.w3.org/2000/svg" xmlns:xlink="http://www.w3.org/1999/xlink" width="227" zoomAndPan="magnify" viewBox="0 0 170.25 44.999999" height="60" preserveAspectRatio="xMidYMid meet" version="1.0"><defs><g/><clipPath id="9bb04291f9"><path d="M 0 0.0976562 L 168 0.0976562 L 168 43 L 0 43 Z M 0 0.0976562 " clip-rule="nonzero"/></clipPath><clipPath id="190d121232"><rect x="0" width="168" y="0" height="43"/></clipPath></defs><g clip-path="url(#9bb04291f9)"><g transform="matrix(1, 0, 0, 1, 0, 0.000000000000002512)"><g clip-path="url(#190d121232)"><g fill="#f2f2f2" fill-opacity="1"><g transform="translate(1.879512, 30.000673)"><g><path d="M 2.359375 -21.203125 L 9.890625 -21.203125 L 13.40625 -9.25 L 13.59375 -9.25 L 17.265625 -21.203125 L 24.59375 -21.203125 L 24.59375 0 L 20.015625 0 L 20.015625 -16.671875 L 19.828125 -16.671875 L 15.734375 -4 L 11.09375 -4 L 7.0625 -16.671875 L 6.875 -16.671875 L 6.875 0 L 2.359375 0 Z M 2.359375 -21.203125 "/></g></g></g><g fill="#f2f2f2" fill-opacity="1"><g transform="translate(26.677755, 30.000673)"><g><path d="M 15.359375 -5.25 L 6.75 -5.25 L 4.921875 0 L 0.09375 0 L 8 -21.203125 L 14.234375 -21.203125 L 22.078125 0 L 17.171875 0 Z M 14.015625 -9.109375 L 11.265625 -17.140625 L 10.90625 -17.140625 L 8.09375 -9.109375 Z M 14.015625 -9.109375 "/></g></g></g><g fill="#f2f2f2" fill-opacity="1"><g transform="translate(46.680918, 30.000673)"><g><path d="M 19.984375 0 L 14.359375 0 L 8.125 -9.28125 L 7 -9.28125 L 7 0 L 2.359375 0 L 2.359375 -21.203125 L 7 -21.203125 L 7 -13.046875 L 8.125 -13.046875 L 14.234375 -21.203125 L 19.671875 -21.203125 L 11.9375 -11.359375 Z M 19.984375 0 "/></g></g></g><g fill="#f2f2f2" fill-opacity="1"><g transform="translate(64.637784, 30.000673)"><g><path d="M 15.734375 -4.03125 L 15.734375 0 L 2.359375 0 L 2.359375 -21.203125 L 15.296875 -21.203125 L 15.296875 -17.171875 L 7 -17.171875 L 7 -12.796875 L 14.6875 -12.796875 L 14.6875 -8.921875 L 7 -8.921875 L 7 -4.03125 Z M 15.734375 -4.03125 "/></g></g></g><g fill="#f2f2f2" fill-opacity="1"><g transform="translate(79.662646, 30.000673)"><g><path d="M 15.359375 -5.25 L 6.75 -5.25 L 4.921875 0 L 0.09375 0 L 8 -21.203125 L 14.234375 -21.203125 L 22.078125 0 L 17.171875 0 Z M 14.015625 -9.109375 L 11.265625 -17.140625 L 10.90625 -17.140625 L 8.09375 -9.109375 Z M 14.015625 -9.109375 "/></g></g></g><g fill="#f2f2f2" fill-opacity="1"><g transform="translate(99.66581, 30.000673)"><g><path d="M 11.125 0.3125 C 8.125 0.3125 5.894531 -0.238281 4.4375 -1.34375 C 2.988281 -2.445312 2.265625 -4.34375 2.265625 -7.03125 L 2.265625 -21.203125 L 6.90625 -21.203125 L 6.90625 -7.546875 C 6.90625 -6.203125 7.207031 -5.21875 7.8125 -4.59375 C 8.425781 -3.976562 9.539062 -3.671875 11.15625 -3.671875 C 12.78125 -3.671875 13.894531 -3.988281 14.5 -4.625 C 15.113281 -5.269531 15.421875 -6.242188 15.421875 -7.546875 L 15.421875 -21.203125 L 20.03125 -21.203125 L 20.03125 -7.03125 C 20.03125 -4.476562 19.273438 -2.613281 17.765625 -1.4375 C 16.265625 -0.269531 14.050781 0.3125 11.125 0.3125 Z M 11.125 0.3125 "/></g></g></g><g fill="#f2f2f2" fill-opacity="1"><g transform="translate(119.821684, 30.000673)"><g><path d="M 14.265625 0 L 9.28125 -7.734375 L 7 -7.734375 L 7 0 L 2.359375 0 L 2.359375 -21.203125 L 9.5625 -21.203125 C 12.4375 -21.203125 14.519531 -20.6875 15.8125 -19.65625 C 17.101562 -18.625 17.75 -16.898438 17.75 -14.484375 C 17.75 -12.734375 17.425781 -11.351562 16.78125 -10.34375 C 16.144531 -9.332031 15.144531 -8.625 13.78125 -8.21875 L 19.734375 0 Z M 8.859375 -11.1875 C 9.941406 -11.1875 10.785156 -11.273438 11.390625 -11.453125 C 12.003906 -11.640625 12.445312 -11.96875 12.71875 -12.4375 C 13 -12.90625 13.140625 -13.585938 13.140625 -14.484375 C 13.140625 -15.316406 13 -15.953125 12.71875 -16.390625 C 12.445312 -16.828125 12.007812 -17.125 11.40625 -17.28125 C 10.8125 -17.445312 9.960938 -17.53125 8.859375 -17.53125 L 7 -17.53125 L 7 -11.1875 Z M 8.859375 -11.1875 "/></g></g></g><g fill="#f2f2f2" fill-opacity="1"><g transform="translate(137.534218, 30.000673)"><g><path d="M 15.359375 -5.25 L 6.75 -5.25 L 4.921875 0 L 0.09375 0 L 8 -21.203125 L 14.234375 -21.203125 L 22.078125 0 L 17.171875 0 Z M 14.015625 -9.109375 L 11.265625 -17.140625 L 10.90625 -17.140625 L 8.09375 -9.109375 Z M 14.015625 -9.109375 "/></g></g></g><g fill="#f2f2f2" fill-opacity="1"><g transform="translate(157.537382, 30.000673)"><g><path d="M 5.046875 0.1875 C 4.222656 0.1875 3.628906 0.117188 3.265625 -0.015625 C 2.898438 -0.148438 2.65625 -0.398438 2.53125 -0.765625 C 2.414062 -1.128906 2.359375 -1.71875 2.359375 -2.53125 C 2.359375 -3.363281 2.414062 -3.957031 2.53125 -4.3125 C 2.65625 -4.675781 2.898438 -4.921875 3.265625 -5.046875 C 3.628906 -5.179688 4.222656 -5.25 5.046875 -5.25 C 5.835938 -5.25 6.414062 -5.179688 6.78125 -5.046875 C 7.144531 -4.921875 7.394531 -4.671875 7.53125 -4.296875 C 7.664062 -3.929688 7.734375 -3.34375 7.734375 -2.53125 C 7.734375 -1.71875 7.664062 -1.128906 7.53125 -0.765625 C 7.394531 -0.398438 7.144531 -0.148438 6.78125 -0.015625 C 6.414062 0.117188 5.835938 0.1875 5.046875 0.1875 Z M 5.046875 0.1875 "/></g></g></g></g></g></g></svg>