<svg xmlns="http://www.w3.org/2000/svg" xmlns:xlink="http://www.w3.org/1999/xlink" width="127" zoomAndPan="magnify" viewBox="0 0 95.25 30.000001" height="40" preserveAspectRatio="xMidYMid meet" version="1.0"><defs><g/></defs><g fill="#f2f2f2" fill-opacity="1"><g transform="translate(3.165984, 18.814023)"><g><path d="M 1.25 -11.28125 L 5.265625 -11.28125 L 7.140625 -4.921875 L 7.234375 -4.921875 L 9.1875 -11.28125 L 13.09375 -11.28125 L 13.09375 0 L 10.65625 0 L 10.65625 -8.875 L 10.5625 -8.875 L 8.375 -2.125 L 5.90625 -2.125 L 3.75 -8.875 L 3.65625 -8.875 L 3.65625 0 L 1.25 0 Z M 1.25 -11.28125 "/></g></g></g><g fill="#f2f2f2" fill-opacity="1"><g transform="translate(16.361084, 18.814023)"><g><path d="M 8.1875 -2.796875 L 3.59375 -2.796875 L 2.625 0 L 0.046875 0 L 4.265625 -11.28125 L 7.578125 -11.28125 L 11.765625 0 L 9.140625 0 Z M 7.46875 -4.84375 L 6 -9.125 L 5.8125 -9.125 L 4.3125 -4.84375 Z M 7.46875 -4.84375 "/></g></g></g><g fill="#f2f2f2" fill-opacity="1"><g transform="translate(27.004732, 18.814023)"><g><path d="M 10.640625 0 L 7.640625 0 L 4.328125 -4.9375 L 3.71875 -4.9375 L 3.71875 0 L 1.25 0 L 1.25 -11.28125 L 3.71875 -11.28125 L 3.71875 -6.953125 L 4.328125 -6.953125 L 7.578125 -11.28125 L 10.46875 -11.28125 L 6.359375 -6.046875 Z M 10.640625 0 "/></g></g></g><g fill="#f2f2f2" fill-opacity="1"><g transform="translate(36.559548, 18.814023)"><g><path d="M 8.375 -2.140625 L 8.375 0 L 1.25 0 L 1.25 -11.28125 L 8.15625 -11.28125 L 8.15625 -9.140625 L 3.71875 -9.140625 L 3.71875 -6.8125 L 7.828125 -6.8125 L 7.828125 -4.75 L 3.71875 -4.75 L 3.71875 -2.140625 Z M 8.375 -2.140625 "/></g></g></g><g fill="#f2f2f2" fill-opacity="1"><g transform="translate(44.55425, 18.814023)"><g><path d="M 8.1875 -2.796875 L 3.59375 -2.796875 L 2.625 0 L 0.046875 0 L 4.265625 -11.28125 L 7.578125 -11.28125 L 11.765625 0 L 9.140625 0 Z M 7.46875 -4.84375 L 6 -9.125 L 5.8125 -9.125 L 4.3125 -4.84375 Z M 7.46875 -4.84375 "/></g></g></g><g fill="#f2f2f2" fill-opacity="1"><g transform="translate(55.197898, 18.814023)"><g><path d="M 5.921875 0.15625 C 4.328125 0.15625 3.140625 -0.132812 2.359375 -0.71875 C 1.585938 -1.300781 1.203125 -2.304688 1.203125 -3.734375 L 1.203125 -11.28125 L 3.671875 -11.28125 L 3.671875 -4.015625 C 3.671875 -3.296875 3.832031 -2.769531 4.15625 -2.4375 C 4.488281 -2.113281 5.082031 -1.953125 5.9375 -1.953125 C 6.800781 -1.953125 7.394531 -2.125 7.71875 -2.46875 C 8.050781 -2.8125 8.21875 -3.328125 8.21875 -4.015625 L 8.21875 -11.28125 L 10.671875 -11.28125 L 10.671875 -3.734375 C 10.671875 -2.378906 10.269531 -1.390625 9.46875 -0.765625 C 8.664062 -0.148438 7.484375 0.15625 5.921875 0.15625 Z M 5.921875 0.15625 "/></g></g></g><g fill="#f2f2f2" fill-opacity="1"><g transform="translate(65.922802, 18.814023)"><g><path d="M 7.59375 0 L 4.9375 -4.109375 L 3.71875 -4.109375 L 3.71875 0 L 1.25 0 L 1.25 -11.28125 L 5.09375 -11.28125 C 6.625 -11.28125 7.734375 -11.003906 8.421875 -10.453125 C 9.109375 -9.910156 9.453125 -8.992188 9.453125 -7.703125 C 9.453125 -6.773438 9.28125 -6.039062 8.9375 -5.5 C 8.59375 -4.96875 8.054688 -4.59375 7.328125 -4.375 L 10.5 0 Z M 4.71875 -5.953125 C 5.289062 -5.953125 5.738281 -6 6.0625 -6.09375 C 6.394531 -6.195312 6.632812 -6.375 6.78125 -6.625 C 6.925781 -6.875 7 -7.234375 7 -7.703125 C 7 -8.148438 6.925781 -8.488281 6.78125 -8.71875 C 6.632812 -8.957031 6.398438 -9.117188 6.078125 -9.203125 C 5.753906 -9.296875 5.300781 -9.34375 4.71875 -9.34375 L 3.71875 -9.34375 L 3.71875 -5.953125 Z M 4.71875 -5.953125 "/></g></g></g><g fill="#f2f2f2" fill-opacity="1"><g transform="translate(75.34761, 18.814023)"><g><path d="M 8.1875 -2.796875 L 3.59375 -2.796875 L 2.625 0 L 0.046875 0 L 4.265625 -11.28125 L 7.578125 -11.28125 L 11.765625 0 L 9.140625 0 Z M 7.46875 -4.84375 L 6 -9.125 L 5.8125 -9.125 L 4.3125 -4.84375 Z M 7.46875 -4.84375 "/></g></g></g><g fill="#f2f2f2" fill-opacity="1"><g transform="translate(85.991257, 18.814023)"><g><path d="M 2.6875 0.09375 C 2.25 0.09375 1.929688 0.0625 1.734375 0 C 1.546875 -0.0703125 1.414062 -0.207031 1.34375 -0.40625 C 1.28125 -0.601562 1.25 -0.914062 1.25 -1.34375 C 1.25 -1.789062 1.28125 -2.109375 1.34375 -2.296875 C 1.414062 -2.492188 1.546875 -2.625 1.734375 -2.6875 C 1.929688 -2.757812 2.25 -2.796875 2.6875 -2.796875 C 3.101562 -2.796875 3.410156 -2.757812 3.609375 -2.6875 C 3.804688 -2.625 3.9375 -2.492188 4 -2.296875 C 4.070312 -2.097656 4.109375 -1.78125 4.109375 -1.34375 C 4.109375 -0.914062 4.070312 -0.601562 4 -0.40625 C 3.9375 -0.207031 3.804688 -0.0703125 3.609375 0 C 3.410156 0.0625 3.101562 0.09375 2.6875 0.09375 Z M 2.6875 0.09375 "/></g></g></g></svg>