<svg xmlns="http://www.w3.org/2000/svg" xmlns:xlink="http://www.w3.org/1999/xlink" width="500" zoomAndPan="magnify" viewBox="0 0 375 279.749983" height="373" preserveAspectRatio="xMidYMid meet" version="1.0"><defs><clipPath id="8bcf40d017"><path d="M 57.878906 32.640625 L 317.125 32.640625 L 317.125 75.664062 L 57.878906 75.664062 Z M 57.878906 32.640625 " clip-rule="nonzero"/></clipPath><clipPath id="a26d1b417d"><path d="M 57.878906 118 L 317.125 118 L 317.125 161.710938 L 57.878906 161.710938 Z M 57.878906 118 " clip-rule="nonzero"/></clipPath><clipPath id="cc9c7722c1"><path d="M 57.878906 204 L 317.125 204 L 317.125 246.898438 L 57.878906 246.898438 Z M 57.878906 204 " clip-rule="nonzero"/></clipPath></defs><g clip-path="url(#8bcf40d017)"><path fill="#f2f2f2" d="M 295.695312 75.492188 L 79.300781 75.492188 C 67.46875 75.492188 57.878906 65.902344 57.878906 54.066406 C 57.878906 42.238281 67.46875 32.644531 79.300781 32.644531 L 295.695312 32.644531 C 307.53125 32.644531 317.121094 42.238281 317.121094 54.066406 C 317.121094 65.902344 307.53125 75.492188 295.695312 75.492188 " fill-opacity="1" fill-rule="nonzero"/></g><g clip-path="url(#a26d1b417d)"><path fill="#f2f2f2" d="M 295.695312 161.195312 L 79.300781 161.195312 C 67.46875 161.195312 57.878906 151.605469 57.878906 139.769531 C 57.878906 127.933594 67.46875 118.34375 79.300781 118.34375 L 295.695312 118.34375 C 307.53125 118.34375 317.121094 127.933594 317.121094 139.769531 C 317.121094 151.605469 307.53125 161.195312 295.695312 161.195312 " fill-opacity="1" fill-rule="nonzero"/></g><g clip-path="url(#cc9c7722c1)"><path fill="#f2f2f2" d="M 295.695312 246.898438 L 79.300781 246.898438 C 67.46875 246.898438 57.878906 237.304688 57.878906 225.472656 C 57.878906 213.636719 67.46875 204.046875 79.300781 204.046875 L 295.695312 204.046875 C 307.53125 204.046875 317.121094 213.636719 317.121094 225.472656 C 317.121094 237.304688 307.53125 246.898438 295.695312 246.898438 " fill-opacity="1" fill-rule="nonzero"/></g></svg>